<mxfile host="app.diagrams.net" agent="Mozilla/5.0 (Macintosh; Intel Mac OS X 10_15_7) AppleWebKit/537.36 (KHTML, like Gecko) Chrome/134.0.0.0 Safari/537.36" version="26.2.9">
  <diagram name="Page-1" id="2YBvvXClWsGukQMizWep">
    <mxGraphModel dx="2380" dy="1148" grid="0" gridSize="10" guides="1" tooltips="1" connect="1" arrows="1" fold="1" page="0" pageScale="1" pageWidth="850" pageHeight="1100" math="0" shadow="0">
      <root>
        <mxCell id="0" />
        <mxCell id="1" parent="0" />
        <mxCell id="8lU-gqcf_Vouc8r6jL8J-54" value="&lt;span style=&quot;text-wrap-mode: wrap;&quot;&gt;:Professor&lt;/span&gt;" style="text;html=1;align=center;verticalAlign=middle;resizable=0;points=[];autosize=1;strokeColor=none;fillColor=none;labelBackgroundColor=none;fontColor=#1D3557;" vertex="1" parent="1">
          <mxGeometry x="30.5" y="118" width="73" height="26" as="geometry" />
        </mxCell>
        <mxCell id="8lU-gqcf_Vouc8r6jL8J-103" value="" style="shape=umlLifeline;perimeter=lifelinePerimeter;whiteSpace=wrap;html=1;container=1;dropTarget=0;collapsible=0;recursiveResize=0;outlineConnect=0;portConstraint=eastwest;newEdgeStyle={&quot;curved&quot;:0,&quot;rounded&quot;:0};participant=umlActor;labelBackgroundColor=none;fillColor=#A8DADC;strokeColor=#457B9D;fontColor=#1D3557;" vertex="1" parent="1">
          <mxGeometry x="57" y="154" width="20" height="1244" as="geometry" />
        </mxCell>
        <mxCell id="8lU-gqcf_Vouc8r6jL8J-116" value="" style="html=1;points=[[0,0,0,0,5],[0,1,0,0,-5],[1,0,0,0,5],[1,1,0,0,-5]];perimeter=orthogonalPerimeter;outlineConnect=0;targetShapes=umlLifeline;portConstraint=eastwest;newEdgeStyle={&quot;curved&quot;:0,&quot;rounded&quot;:0};labelBackgroundColor=none;fillColor=#A8DADC;strokeColor=#457B9D;fontColor=#1D3557;" vertex="1" parent="8lU-gqcf_Vouc8r6jL8J-103">
          <mxGeometry x="5" y="66" width="10" height="92" as="geometry" />
        </mxCell>
        <mxCell id="8lU-gqcf_Vouc8r6jL8J-129" value="" style="html=1;points=[[0,0,0,0,5],[0,1,0,0,-5],[1,0,0,0,5],[1,1,0,0,-5]];perimeter=orthogonalPerimeter;outlineConnect=0;targetShapes=umlLifeline;portConstraint=eastwest;newEdgeStyle={&quot;curved&quot;:0,&quot;rounded&quot;:0};labelBackgroundColor=none;fillColor=#A8DADC;strokeColor=#457B9D;fontColor=#1D3557;" vertex="1" parent="8lU-gqcf_Vouc8r6jL8J-103">
          <mxGeometry x="5" y="158" width="10" height="22" as="geometry" />
        </mxCell>
        <mxCell id="8lU-gqcf_Vouc8r6jL8J-138" value="" style="html=1;points=[[0,0,0,0,5],[0,1,0,0,-5],[1,0,0,0,5],[1,1,0,0,-5]];perimeter=orthogonalPerimeter;outlineConnect=0;targetShapes=umlLifeline;portConstraint=eastwest;newEdgeStyle={&quot;curved&quot;:0,&quot;rounded&quot;:0};labelBackgroundColor=none;fillColor=#A8DADC;strokeColor=#457B9D;fontColor=#1D3557;" vertex="1" parent="8lU-gqcf_Vouc8r6jL8J-103">
          <mxGeometry x="5" y="299" width="10" height="122" as="geometry" />
        </mxCell>
        <mxCell id="8lU-gqcf_Vouc8r6jL8J-104" value="&lt;span style=&quot;text-wrap-mode: wrap;&quot;&gt;:Aluno&lt;/span&gt;" style="text;html=1;align=center;verticalAlign=middle;resizable=0;points=[];autosize=1;strokeColor=none;fillColor=none;labelBackgroundColor=none;fontColor=#1D3557;" vertex="1" parent="1">
          <mxGeometry x="797" y="124" width="52" height="26" as="geometry" />
        </mxCell>
        <mxCell id="8lU-gqcf_Vouc8r6jL8J-105" value="" style="shape=umlLifeline;perimeter=lifelinePerimeter;whiteSpace=wrap;html=1;container=1;dropTarget=0;collapsible=0;recursiveResize=0;outlineConnect=0;portConstraint=eastwest;newEdgeStyle={&quot;curved&quot;:0,&quot;rounded&quot;:0};participant=umlActor;labelBackgroundColor=none;fillColor=#A8DADC;strokeColor=#457B9D;fontColor=#1D3557;" vertex="1" parent="1">
          <mxGeometry x="813" y="157" width="20" height="1244" as="geometry" />
        </mxCell>
        <mxCell id="8lU-gqcf_Vouc8r6jL8J-121" value="" style="html=1;points=[[0,0,0,0,5],[0,1,0,0,-5],[1,0,0,0,5],[1,1,0,0,-5]];perimeter=orthogonalPerimeter;outlineConnect=0;targetShapes=umlLifeline;portConstraint=eastwest;newEdgeStyle={&quot;curved&quot;:0,&quot;rounded&quot;:0};labelBackgroundColor=none;fillColor=#A8DADC;strokeColor=#457B9D;fontColor=#1D3557;" vertex="1" parent="8lU-gqcf_Vouc8r6jL8J-105">
          <mxGeometry x="5" y="76" width="10" height="167" as="geometry" />
        </mxCell>
        <mxCell id="8lU-gqcf_Vouc8r6jL8J-141" value="" style="html=1;points=[[0,0,0,0,5],[0,1,0,0,-5],[1,0,0,0,5],[1,1,0,0,-5]];perimeter=orthogonalPerimeter;outlineConnect=0;targetShapes=umlLifeline;portConstraint=eastwest;newEdgeStyle={&quot;curved&quot;:0,&quot;rounded&quot;:0};labelBackgroundColor=none;fillColor=#A8DADC;strokeColor=#457B9D;fontColor=#1D3557;" vertex="1" parent="8lU-gqcf_Vouc8r6jL8J-105">
          <mxGeometry x="5" y="313" width="10" height="21" as="geometry" />
        </mxCell>
        <mxCell id="8lU-gqcf_Vouc8r6jL8J-145" value="" style="html=1;points=[[0,0,0,0,5],[0,1,0,0,-5],[1,0,0,0,5],[1,1,0,0,-5]];perimeter=orthogonalPerimeter;outlineConnect=0;targetShapes=umlLifeline;portConstraint=eastwest;newEdgeStyle={&quot;curved&quot;:0,&quot;rounded&quot;:0};labelBackgroundColor=none;fillColor=#A8DADC;strokeColor=#457B9D;fontColor=#1D3557;" vertex="1" parent="8lU-gqcf_Vouc8r6jL8J-105">
          <mxGeometry x="5" y="391" width="10" height="21" as="geometry" />
        </mxCell>
        <mxCell id="8lU-gqcf_Vouc8r6jL8J-147" value="" style="html=1;points=[[0,0,0,0,5],[0,1,0,0,-5],[1,0,0,0,5],[1,1,0,0,-5]];perimeter=orthogonalPerimeter;outlineConnect=0;targetShapes=umlLifeline;portConstraint=eastwest;newEdgeStyle={&quot;curved&quot;:0,&quot;rounded&quot;:0};labelBackgroundColor=none;fillColor=#A8DADC;strokeColor=#457B9D;fontColor=#1D3557;" vertex="1" parent="8lU-gqcf_Vouc8r6jL8J-105">
          <mxGeometry x="5" y="671" width="10" height="211" as="geometry" />
        </mxCell>
        <mxCell id="8lU-gqcf_Vouc8r6jL8J-152" value="" style="html=1;points=[[0,0,0,0,5],[0,1,0,0,-5],[1,0,0,0,5],[1,1,0,0,-5]];perimeter=orthogonalPerimeter;outlineConnect=0;targetShapes=umlLifeline;portConstraint=eastwest;newEdgeStyle={&quot;curved&quot;:0,&quot;rounded&quot;:0};labelBackgroundColor=none;fillColor=#A8DADC;strokeColor=#457B9D;fontColor=#1D3557;" vertex="1" parent="8lU-gqcf_Vouc8r6jL8J-105">
          <mxGeometry x="13" y="811" width="10" height="21" as="geometry" />
        </mxCell>
        <mxCell id="8lU-gqcf_Vouc8r6jL8J-106" value=":Admin" style="shape=umlLifeline;perimeter=lifelinePerimeter;whiteSpace=wrap;html=1;container=1;dropTarget=0;collapsible=0;recursiveResize=0;outlineConnect=0;portConstraint=eastwest;newEdgeStyle={&quot;curved&quot;:0,&quot;rounded&quot;:0};labelBackgroundColor=none;fillColor=#A8DADC;strokeColor=#457B9D;fontColor=#1D3557;" vertex="1" parent="1">
          <mxGeometry x="-286" y="157" width="100" height="1258" as="geometry" />
        </mxCell>
        <mxCell id="8lU-gqcf_Vouc8r6jL8J-114" value="" style="html=1;points=[[0,0,0,0,5],[0,1,0,0,-5],[1,0,0,0,5],[1,1,0,0,-5]];perimeter=orthogonalPerimeter;outlineConnect=0;targetShapes=umlLifeline;portConstraint=eastwest;newEdgeStyle={&quot;curved&quot;:0,&quot;rounded&quot;:0};labelBackgroundColor=none;fillColor=#A8DADC;strokeColor=#457B9D;fontColor=#1D3557;" vertex="1" parent="8lU-gqcf_Vouc8r6jL8J-106">
          <mxGeometry x="45" y="61" width="10" height="148" as="geometry" />
        </mxCell>
        <mxCell id="8lU-gqcf_Vouc8r6jL8J-107" value=":Auth" style="shape=umlLifeline;perimeter=lifelinePerimeter;whiteSpace=wrap;html=1;container=1;dropTarget=0;collapsible=0;recursiveResize=0;outlineConnect=0;portConstraint=eastwest;newEdgeStyle={&quot;curved&quot;:0,&quot;rounded&quot;:0};labelBackgroundColor=none;fillColor=#A8DADC;strokeColor=#457B9D;fontColor=#1D3557;" vertex="1" parent="1">
          <mxGeometry x="266" y="154" width="100" height="1258" as="geometry" />
        </mxCell>
        <mxCell id="8lU-gqcf_Vouc8r6jL8J-117" value="" style="html=1;points=[[0,0,0,0,5],[0,1,0,0,-5],[1,0,0,0,5],[1,1,0,0,-5]];perimeter=orthogonalPerimeter;outlineConnect=0;targetShapes=umlLifeline;portConstraint=eastwest;newEdgeStyle={&quot;curved&quot;:0,&quot;rounded&quot;:0};labelBackgroundColor=none;fillColor=#A8DADC;strokeColor=#457B9D;fontColor=#1D3557;" vertex="1" parent="8lU-gqcf_Vouc8r6jL8J-107">
          <mxGeometry x="45" y="71" width="10" height="80" as="geometry" />
        </mxCell>
        <mxCell id="8lU-gqcf_Vouc8r6jL8J-125" value="" style="html=1;points=[[0,0,0,0,5],[0,1,0,0,-5],[1,0,0,0,5],[1,1,0,0,-5]];perimeter=orthogonalPerimeter;outlineConnect=0;targetShapes=umlLifeline;portConstraint=eastwest;newEdgeStyle={&quot;curved&quot;:0,&quot;rounded&quot;:0};labelBackgroundColor=none;fillColor=#A8DADC;strokeColor=#457B9D;fontColor=#1D3557;" vertex="1" parent="8lU-gqcf_Vouc8r6jL8J-107">
          <mxGeometry x="43" y="182" width="10" height="80" as="geometry" />
        </mxCell>
        <mxCell id="8lU-gqcf_Vouc8r6jL8J-134" value="" style="html=1;points=[[0,0,0,0,5],[0,1,0,0,-5],[1,0,0,0,5],[1,1,0,0,-5]];perimeter=orthogonalPerimeter;outlineConnect=0;targetShapes=umlLifeline;portConstraint=eastwest;newEdgeStyle={&quot;curved&quot;:0,&quot;rounded&quot;:0};labelBackgroundColor=none;fillColor=#A8DADC;strokeColor=#457B9D;fontColor=#1D3557;" vertex="1" parent="8lU-gqcf_Vouc8r6jL8J-107">
          <mxGeometry x="45" y="529" width="10" height="87" as="geometry" />
        </mxCell>
        <mxCell id="8lU-gqcf_Vouc8r6jL8J-108" value=":Extrato" style="shape=umlLifeline;perimeter=lifelinePerimeter;whiteSpace=wrap;html=1;container=1;dropTarget=0;collapsible=0;recursiveResize=0;outlineConnect=0;portConstraint=eastwest;newEdgeStyle={&quot;curved&quot;:0,&quot;rounded&quot;:0};labelBackgroundColor=none;fillColor=#A8DADC;strokeColor=#457B9D;fontColor=#1D3557;" vertex="1" parent="1">
          <mxGeometry x="555" y="154" width="100" height="1258" as="geometry" />
        </mxCell>
        <mxCell id="8lU-gqcf_Vouc8r6jL8J-119" value="" style="html=1;points=[[0,0,0,0,5],[0,1,0,0,-5],[1,0,0,0,5],[1,1,0,0,-5]];perimeter=orthogonalPerimeter;outlineConnect=0;targetShapes=umlLifeline;portConstraint=eastwest;newEdgeStyle={&quot;curved&quot;:0,&quot;rounded&quot;:0};labelBackgroundColor=none;fillColor=#A8DADC;strokeColor=#457B9D;fontColor=#1D3557;" vertex="1" parent="8lU-gqcf_Vouc8r6jL8J-108">
          <mxGeometry x="45" y="78" width="10" height="20" as="geometry" />
        </mxCell>
        <mxCell id="8lU-gqcf_Vouc8r6jL8J-126" value="" style="html=1;points=[[0,0,0,0,5],[0,1,0,0,-5],[1,0,0,0,5],[1,1,0,0,-5]];perimeter=orthogonalPerimeter;outlineConnect=0;targetShapes=umlLifeline;portConstraint=eastwest;newEdgeStyle={&quot;curved&quot;:0,&quot;rounded&quot;:0};labelBackgroundColor=none;fillColor=#A8DADC;strokeColor=#457B9D;fontColor=#1D3557;" vertex="1" parent="8lU-gqcf_Vouc8r6jL8J-108">
          <mxGeometry x="45" y="230" width="10" height="21" as="geometry" />
        </mxCell>
        <mxCell id="8lU-gqcf_Vouc8r6jL8J-139" value="" style="html=1;points=[[0,0,0,0,5],[0,1,0,0,-5],[1,0,0,0,5],[1,1,0,0,-5]];perimeter=orthogonalPerimeter;outlineConnect=0;targetShapes=umlLifeline;portConstraint=eastwest;newEdgeStyle={&quot;curved&quot;:0,&quot;rounded&quot;:0};labelBackgroundColor=none;fillColor=#A8DADC;strokeColor=#457B9D;fontColor=#1D3557;" vertex="1" parent="8lU-gqcf_Vouc8r6jL8J-108">
          <mxGeometry x="45" y="300" width="10" height="97" as="geometry" />
        </mxCell>
        <mxCell id="8lU-gqcf_Vouc8r6jL8J-148" value="" style="html=1;points=[[0,0,0,0,5],[0,1,0,0,-5],[1,0,0,0,5],[1,1,0,0,-5]];perimeter=orthogonalPerimeter;outlineConnect=0;targetShapes=umlLifeline;portConstraint=eastwest;newEdgeStyle={&quot;curved&quot;:0,&quot;rounded&quot;:0};labelBackgroundColor=none;fillColor=#A8DADC;strokeColor=#457B9D;fontColor=#1D3557;" vertex="1" parent="8lU-gqcf_Vouc8r6jL8J-108">
          <mxGeometry x="45" y="677" width="10" height="187" as="geometry" />
        </mxCell>
        <mxCell id="8lU-gqcf_Vouc8r6jL8J-109" value=":Cadastro" style="shape=umlLifeline;perimeter=lifelinePerimeter;whiteSpace=wrap;html=1;container=1;dropTarget=0;collapsible=0;recursiveResize=0;outlineConnect=0;portConstraint=eastwest;newEdgeStyle={&quot;curved&quot;:0,&quot;rounded&quot;:0};labelBackgroundColor=none;fillColor=#A8DADC;strokeColor=#457B9D;fontColor=#1D3557;" vertex="1" parent="1">
          <mxGeometry x="1043" y="144" width="100" height="1258" as="geometry" />
        </mxCell>
        <mxCell id="8lU-gqcf_Vouc8r6jL8J-122" value="" style="html=1;points=[[0,0,0,0,5],[0,1,0,0,-5],[1,0,0,0,5],[1,1,0,0,-5]];perimeter=orthogonalPerimeter;outlineConnect=0;targetShapes=umlLifeline;portConstraint=eastwest;newEdgeStyle={&quot;curved&quot;:0,&quot;rounded&quot;:0};labelBackgroundColor=none;fillColor=#A8DADC;strokeColor=#457B9D;fontColor=#1D3557;" vertex="1" parent="8lU-gqcf_Vouc8r6jL8J-109">
          <mxGeometry x="45" y="90" width="10" height="126" as="geometry" />
        </mxCell>
        <mxCell id="8lU-gqcf_Vouc8r6jL8J-132" value="" style="html=1;points=[[0,0,0,0,5],[0,1,0,0,-5],[1,0,0,0,5],[1,1,0,0,-5]];perimeter=orthogonalPerimeter;outlineConnect=0;targetShapes=umlLifeline;portConstraint=eastwest;newEdgeStyle={&quot;curved&quot;:0,&quot;rounded&quot;:0};labelBackgroundColor=none;fillColor=#A8DADC;strokeColor=#457B9D;fontColor=#1D3557;" vertex="1" parent="8lU-gqcf_Vouc8r6jL8J-109">
          <mxGeometry x="45" y="287" width="10" height="430" as="geometry" />
        </mxCell>
        <mxCell id="8lU-gqcf_Vouc8r6jL8J-110" value=":e-mail" style="shape=umlLifeline;perimeter=lifelinePerimeter;whiteSpace=wrap;html=1;container=1;dropTarget=0;collapsible=0;recursiveResize=0;outlineConnect=0;portConstraint=eastwest;newEdgeStyle={&quot;curved&quot;:0,&quot;rounded&quot;:0};labelBackgroundColor=none;fillColor=#A8DADC;strokeColor=#457B9D;fontColor=#1D3557;" vertex="1" parent="1">
          <mxGeometry x="1325" y="143" width="100" height="1258" as="geometry" />
        </mxCell>
        <mxCell id="8lU-gqcf_Vouc8r6jL8J-143" value="" style="html=1;points=[[0,0,0,0,5],[0,1,0,0,-5],[1,0,0,0,5],[1,1,0,0,-5]];perimeter=orthogonalPerimeter;outlineConnect=0;targetShapes=umlLifeline;portConstraint=eastwest;newEdgeStyle={&quot;curved&quot;:0,&quot;rounded&quot;:0};labelBackgroundColor=none;fillColor=#A8DADC;strokeColor=#457B9D;fontColor=#1D3557;" vertex="1" parent="8lU-gqcf_Vouc8r6jL8J-110">
          <mxGeometry x="45" y="362" width="10" height="71" as="geometry" />
        </mxCell>
        <mxCell id="8lU-gqcf_Vouc8r6jL8J-153" value="" style="html=1;points=[[0,0,0,0,5],[0,1,0,0,-5],[1,0,0,0,5],[1,1,0,0,-5]];perimeter=orthogonalPerimeter;outlineConnect=0;targetShapes=umlLifeline;portConstraint=eastwest;newEdgeStyle={&quot;curved&quot;:0,&quot;rounded&quot;:0};labelBackgroundColor=none;fillColor=#A8DADC;strokeColor=#457B9D;fontColor=#1D3557;" vertex="1" parent="8lU-gqcf_Vouc8r6jL8J-110">
          <mxGeometry x="45" y="820" width="10" height="71" as="geometry" />
        </mxCell>
        <mxCell id="8lU-gqcf_Vouc8r6jL8J-111" value="" style="shape=umlLifeline;perimeter=lifelinePerimeter;whiteSpace=wrap;html=1;container=1;dropTarget=0;collapsible=0;recursiveResize=0;outlineConnect=0;portConstraint=eastwest;newEdgeStyle={&quot;curved&quot;:0,&quot;rounded&quot;:0};participant=umlActor;labelBackgroundColor=none;fillColor=#A8DADC;strokeColor=#457B9D;fontColor=#1D3557;" vertex="1" parent="1">
          <mxGeometry x="1632" y="143" width="20" height="1244" as="geometry" />
        </mxCell>
        <mxCell id="8lU-gqcf_Vouc8r6jL8J-131" value="" style="html=1;points=[[0,0,0,0,5],[0,1,0,0,-5],[1,0,0,0,5],[1,1,0,0,-5]];perimeter=orthogonalPerimeter;outlineConnect=0;targetShapes=umlLifeline;portConstraint=eastwest;newEdgeStyle={&quot;curved&quot;:0,&quot;rounded&quot;:0};labelBackgroundColor=none;fillColor=#A8DADC;strokeColor=#457B9D;fontColor=#1D3557;" vertex="1" parent="8lU-gqcf_Vouc8r6jL8J-111">
          <mxGeometry x="5.5" y="285" width="10" height="440" as="geometry" />
        </mxCell>
        <mxCell id="8lU-gqcf_Vouc8r6jL8J-156" value="" style="html=1;points=[[0,0,0,0,5],[0,1,0,0,-5],[1,0,0,0,5],[1,1,0,0,-5]];perimeter=orthogonalPerimeter;outlineConnect=0;targetShapes=umlLifeline;portConstraint=eastwest;newEdgeStyle={&quot;curved&quot;:0,&quot;rounded&quot;:0};labelBackgroundColor=none;fillColor=#A8DADC;strokeColor=#457B9D;fontColor=#1D3557;" vertex="1" parent="8lU-gqcf_Vouc8r6jL8J-111">
          <mxGeometry x="5" y="858" width="10" height="29" as="geometry" />
        </mxCell>
        <mxCell id="8lU-gqcf_Vouc8r6jL8J-112" value="&lt;span style=&quot;text-wrap-mode: wrap;&quot;&gt;:Empresa&lt;/span&gt;" style="text;html=1;align=center;verticalAlign=middle;resizable=0;points=[];autosize=1;strokeColor=none;fillColor=none;labelBackgroundColor=none;fontColor=#1D3557;" vertex="1" parent="1">
          <mxGeometry x="1608" y="113" width="69" height="26" as="geometry" />
        </mxCell>
        <mxCell id="8lU-gqcf_Vouc8r6jL8J-113" value=":Beneficio" style="shape=umlLifeline;perimeter=lifelinePerimeter;whiteSpace=wrap;html=1;container=1;dropTarget=0;collapsible=0;recursiveResize=0;outlineConnect=0;portConstraint=eastwest;newEdgeStyle={&quot;curved&quot;:0,&quot;rounded&quot;:0};labelBackgroundColor=none;fillColor=#A8DADC;strokeColor=#457B9D;fontColor=#1D3557;" vertex="1" parent="1">
          <mxGeometry x="1901" y="139" width="100" height="1258" as="geometry" />
        </mxCell>
        <mxCell id="8lU-gqcf_Vouc8r6jL8J-136" value="" style="html=1;points=[[0,0,0,0,5],[0,1,0,0,-5],[1,0,0,0,5],[1,1,0,0,-5]];perimeter=orthogonalPerimeter;outlineConnect=0;targetShapes=umlLifeline;portConstraint=eastwest;newEdgeStyle={&quot;curved&quot;:0,&quot;rounded&quot;:0};labelBackgroundColor=none;fillColor=#A8DADC;strokeColor=#457B9D;fontColor=#1D3557;" vertex="1" parent="8lU-gqcf_Vouc8r6jL8J-113">
          <mxGeometry x="45" y="604" width="10" height="21" as="geometry" />
        </mxCell>
        <mxCell id="8lU-gqcf_Vouc8r6jL8J-150" value="" style="html=1;points=[[0,0,0,0,5],[0,1,0,0,-5],[1,0,0,0,5],[1,1,0,0,-5]];perimeter=orthogonalPerimeter;outlineConnect=0;targetShapes=umlLifeline;portConstraint=eastwest;newEdgeStyle={&quot;curved&quot;:0,&quot;rounded&quot;:0};labelBackgroundColor=none;fillColor=#A8DADC;strokeColor=#457B9D;fontColor=#1D3557;" vertex="1" parent="8lU-gqcf_Vouc8r6jL8J-113">
          <mxGeometry x="49" y="773" width="10" height="143" as="geometry" />
        </mxCell>
        <mxCell id="8lU-gqcf_Vouc8r6jL8J-115" value="1: cadastrarProfessor()" style="html=1;verticalAlign=bottom;endArrow=block;curved=0;rounded=0;labelBackgroundColor=none;strokeColor=#457B9D;fontColor=default;" edge="1" parent="1" target="8lU-gqcf_Vouc8r6jL8J-103">
          <mxGeometry width="80" relative="1" as="geometry">
            <mxPoint x="-231" y="220" as="sourcePoint" />
            <mxPoint x="-151" y="220" as="targetPoint" />
          </mxGeometry>
        </mxCell>
        <mxCell id="8lU-gqcf_Vouc8r6jL8J-118" value="1.1: autenticar()" style="html=1;verticalAlign=bottom;endArrow=block;curved=0;rounded=0;labelBackgroundColor=none;strokeColor=#457B9D;fontColor=default;" edge="1" parent="1">
          <mxGeometry width="80" relative="1" as="geometry">
            <mxPoint x="73" y="228" as="sourcePoint" />
            <mxPoint x="316.5000000000002" y="228" as="targetPoint" />
          </mxGeometry>
        </mxCell>
        <mxCell id="8lU-gqcf_Vouc8r6jL8J-120" value="1.1.1: verificarExtrato()" style="html=1;verticalAlign=bottom;endArrow=block;curved=0;rounded=0;labelBackgroundColor=none;strokeColor=#457B9D;fontColor=default;" edge="1" parent="1" target="8lU-gqcf_Vouc8r6jL8J-108">
          <mxGeometry width="80" relative="1" as="geometry">
            <mxPoint x="321" y="240" as="sourcePoint" />
            <mxPoint x="401" y="240" as="targetPoint" />
          </mxGeometry>
        </mxCell>
        <mxCell id="8lU-gqcf_Vouc8r6jL8J-123" value="2: cadastrarAluno()" style="html=1;verticalAlign=bottom;endArrow=block;curved=0;rounded=0;labelBackgroundColor=none;strokeColor=#457B9D;fontColor=default;" edge="1" parent="1" target="8lU-gqcf_Vouc8r6jL8J-109">
          <mxGeometry width="80" relative="1" as="geometry">
            <mxPoint x="828" y="236" as="sourcePoint" />
            <mxPoint x="908" y="236" as="targetPoint" />
          </mxGeometry>
        </mxCell>
        <mxCell id="8lU-gqcf_Vouc8r6jL8J-124" value="2.1: autenticar()" style="html=1;verticalAlign=bottom;endArrow=block;curved=0;rounded=0;exitX=-0.187;exitY=0.801;exitDx=0;exitDy=0;exitPerimeter=0;labelBackgroundColor=none;strokeColor=#457B9D;fontColor=default;" edge="1" parent="1" source="8lU-gqcf_Vouc8r6jL8J-122" target="8lU-gqcf_Vouc8r6jL8J-125">
          <mxGeometry width="80" relative="1" as="geometry">
            <mxPoint x="887" y="315" as="sourcePoint" />
            <mxPoint x="965" y="313" as="targetPoint" />
          </mxGeometry>
        </mxCell>
        <mxCell id="8lU-gqcf_Vouc8r6jL8J-127" value="2.1.1: verificarExtrato()" style="html=1;verticalAlign=bottom;endArrow=block;curved=0;rounded=0;labelBackgroundColor=none;strokeColor=#457B9D;fontColor=default;" edge="1" parent="1" target="8lU-gqcf_Vouc8r6jL8J-108">
          <mxGeometry width="80" relative="1" as="geometry">
            <mxPoint x="320" y="386" as="sourcePoint" />
            <mxPoint x="400" y="386" as="targetPoint" />
          </mxGeometry>
        </mxCell>
        <mxCell id="8lU-gqcf_Vouc8r6jL8J-128" value="3. envioDeMoedas()" style="html=1;verticalAlign=bottom;endArrow=block;curved=0;rounded=0;labelBackgroundColor=none;strokeColor=#457B9D;fontColor=default;" edge="1" parent="1" target="8lU-gqcf_Vouc8r6jL8J-103">
          <mxGeometry width="80" relative="1" as="geometry">
            <mxPoint x="-230" y="328" as="sourcePoint" />
            <mxPoint x="-150" y="328" as="targetPoint" />
          </mxGeometry>
        </mxCell>
        <mxCell id="8lU-gqcf_Vouc8r6jL8J-130" value="loop [semestral]" style="shape=umlFrame;whiteSpace=wrap;html=1;pointerEvents=0;width=96;height=31;labelBackgroundColor=none;fillColor=#A8DADC;strokeColor=#457B9D;fontColor=#1D3557;" vertex="1" parent="1">
          <mxGeometry x="-354" y="275" width="451" height="125" as="geometry" />
        </mxCell>
        <mxCell id="8lU-gqcf_Vouc8r6jL8J-133" value="4. cadastrar()" style="html=1;verticalAlign=bottom;endArrow=block;curved=0;rounded=0;entryX=1;entryY=0;entryDx=0;entryDy=5;entryPerimeter=0;labelBackgroundColor=none;strokeColor=#457B9D;fontColor=default;" edge="1" parent="1" source="8lU-gqcf_Vouc8r6jL8J-111" target="8lU-gqcf_Vouc8r6jL8J-132">
          <mxGeometry x="0.2346" y="-3" width="80" relative="1" as="geometry">
            <mxPoint x="1504" y="435" as="sourcePoint" />
            <mxPoint x="1584" y="435" as="targetPoint" />
            <mxPoint as="offset" />
          </mxGeometry>
        </mxCell>
        <mxCell id="8lU-gqcf_Vouc8r6jL8J-135" value="4.1: autenticar()" style="html=1;verticalAlign=bottom;endArrow=block;curved=0;rounded=0;entryX=1;entryY=0;entryDx=0;entryDy=5;entryPerimeter=0;labelBackgroundColor=none;strokeColor=#457B9D;fontColor=default;" edge="1" parent="1" source="8lU-gqcf_Vouc8r6jL8J-109" target="8lU-gqcf_Vouc8r6jL8J-134">
          <mxGeometry width="80" relative="1" as="geometry">
            <mxPoint x="1014" y="711" as="sourcePoint" />
            <mxPoint x="486" y="711" as="targetPoint" />
          </mxGeometry>
        </mxCell>
        <mxCell id="8lU-gqcf_Vouc8r6jL8J-137" value="4.1.1: cadastrarBeneficio()" style="html=1;verticalAlign=bottom;endArrow=block;curved=0;rounded=0;labelBackgroundColor=none;strokeColor=#457B9D;fontColor=default;" edge="1" parent="1" target="8lU-gqcf_Vouc8r6jL8J-113">
          <mxGeometry x="0.0936" width="80" relative="1" as="geometry">
            <mxPoint x="321" y="752" as="sourcePoint" />
            <mxPoint x="401" y="752" as="targetPoint" />
            <mxPoint as="offset" />
          </mxGeometry>
        </mxCell>
        <mxCell id="8lU-gqcf_Vouc8r6jL8J-140" value="5: envioDeMoedas()" style="html=1;verticalAlign=bottom;endArrow=block;curved=0;rounded=0;entryX=0;entryY=0;entryDx=0;entryDy=5;entryPerimeter=0;labelBackgroundColor=none;strokeColor=#457B9D;fontColor=default;" edge="1" parent="1" target="8lU-gqcf_Vouc8r6jL8J-139">
          <mxGeometry x="0.1212" y="-2" width="80" relative="1" as="geometry">
            <mxPoint x="72" y="459" as="sourcePoint" />
            <mxPoint x="152" y="459" as="targetPoint" />
            <mxPoint as="offset" />
          </mxGeometry>
        </mxCell>
        <mxCell id="8lU-gqcf_Vouc8r6jL8J-142" value="5.1: receberMoedas()" style="html=1;verticalAlign=bottom;endArrow=block;curved=0;rounded=0;labelBackgroundColor=none;strokeColor=#457B9D;fontColor=default;" edge="1" parent="1" target="8lU-gqcf_Vouc8r6jL8J-105">
          <mxGeometry x="-0.025" y="2" width="80" relative="1" as="geometry">
            <mxPoint x="611" y="474" as="sourcePoint" />
            <mxPoint x="691" y="474" as="targetPoint" />
            <mxPoint as="offset" />
          </mxGeometry>
        </mxCell>
        <mxCell id="8lU-gqcf_Vouc8r6jL8J-144" value="5.2: notificarAluno()" style="html=1;verticalAlign=bottom;endArrow=block;curved=0;rounded=0;labelBackgroundColor=none;strokeColor=#457B9D;fontColor=default;" edge="1" parent="1" target="8lU-gqcf_Vouc8r6jL8J-110">
          <mxGeometry width="80" relative="1" as="geometry">
            <mxPoint x="610" y="514" as="sourcePoint" />
            <mxPoint x="690" y="514" as="targetPoint" />
          </mxGeometry>
        </mxCell>
        <mxCell id="8lU-gqcf_Vouc8r6jL8J-146" value="5.2.1: receberEmail()" style="html=1;verticalAlign=bottom;endArrow=block;curved=0;rounded=0;entryX=1;entryY=0;entryDx=0;entryDy=5;entryPerimeter=0;labelBackgroundColor=none;strokeColor=#457B9D;fontColor=default;" edge="1" parent="1" source="8lU-gqcf_Vouc8r6jL8J-110" target="8lU-gqcf_Vouc8r6jL8J-145">
          <mxGeometry x="0.3596" width="80" relative="1" as="geometry">
            <mxPoint x="1270" y="574" as="sourcePoint" />
            <mxPoint x="852" y="551" as="targetPoint" />
            <mxPoint as="offset" />
          </mxGeometry>
        </mxCell>
        <mxCell id="8lU-gqcf_Vouc8r6jL8J-149" value="6: verificarExtrato()" style="html=1;verticalAlign=bottom;endArrow=block;curved=0;rounded=0;exitX=0;exitY=0;exitDx=0;exitDy=5;exitPerimeter=0;labelBackgroundColor=none;strokeColor=#457B9D;fontColor=default;" edge="1" parent="1" source="8lU-gqcf_Vouc8r6jL8J-147" target="8lU-gqcf_Vouc8r6jL8J-108">
          <mxGeometry width="80" relative="1" as="geometry">
            <mxPoint x="678" y="841" as="sourcePoint" />
            <mxPoint x="758" y="841" as="targetPoint" />
          </mxGeometry>
        </mxCell>
        <mxCell id="8lU-gqcf_Vouc8r6jL8J-151" value="6.1: adquirirBeneficio()" style="html=1;verticalAlign=bottom;endArrow=block;curved=0;rounded=0;labelBackgroundColor=none;strokeColor=#457B9D;fontColor=default;" edge="1" parent="1" target="8lU-gqcf_Vouc8r6jL8J-113">
          <mxGeometry width="80" relative="1" as="geometry">
            <mxPoint x="611" y="915" as="sourcePoint" />
            <mxPoint x="691" y="915" as="targetPoint" />
          </mxGeometry>
        </mxCell>
        <mxCell id="8lU-gqcf_Vouc8r6jL8J-154" value="6.1.1: enviarCupom()" style="html=1;verticalAlign=bottom;endArrow=block;curved=0;rounded=0;labelBackgroundColor=none;strokeColor=#457B9D;fontColor=default;" edge="1" parent="1" source="8lU-gqcf_Vouc8r6jL8J-113" target="8lU-gqcf_Vouc8r6jL8J-153">
          <mxGeometry width="80" relative="1" as="geometry">
            <mxPoint x="1892" y="957" as="sourcePoint" />
            <mxPoint x="1540" y="1022" as="targetPoint" />
          </mxGeometry>
        </mxCell>
        <mxCell id="8lU-gqcf_Vouc8r6jL8J-155" value="6.1.1.1:receberCupom()" style="html=1;verticalAlign=bottom;endArrow=block;curved=0;rounded=0;labelBackgroundColor=none;strokeColor=#457B9D;fontColor=default;" edge="1" parent="1" source="8lU-gqcf_Vouc8r6jL8J-153">
          <mxGeometry width="80" relative="1" as="geometry">
            <mxPoint x="1306" y="981" as="sourcePoint" />
            <mxPoint x="837" y="969" as="targetPoint" />
          </mxGeometry>
        </mxCell>
        <mxCell id="8lU-gqcf_Vouc8r6jL8J-157" value="6.1.2: receberNotifição()" style="html=1;verticalAlign=bottom;endArrow=block;curved=0;rounded=0;labelBackgroundColor=none;strokeColor=#457B9D;fontColor=default;" edge="1" parent="1" target="8lU-gqcf_Vouc8r6jL8J-111">
          <mxGeometry width="80" relative="1" as="geometry">
            <mxPoint x="1381" y="1006" as="sourcePoint" />
            <mxPoint x="1461" y="1006" as="targetPoint" />
          </mxGeometry>
        </mxCell>
      </root>
    </mxGraphModel>
  </diagram>
</mxfile>
